<svg xmlns="http://www.w3.org/2000/svg">

    <!-- SMI Logo -->
    <symbol id="smi-logo" viewBox="0 0 108 48" >
        <path d="M37.2031 18.7485H62.3434L61.1349 9.79797H39.2208L37.2031 18.7485Z"/>
        <path d="M90.5131 9.79797L88.9773 18.7485H104.852L106.388 9.79797H90.5131Z"/>
        <path d="M104.627 20.0592H88.7523L86.667 32.212H102.54L104.627 20.0592Z"/>
        <path d="M106.562 8.78611L108 0.403008H95.0665C93.3673 0.402778 91.9153 1.62716 91.6286 3.30196L90.6873 8.78611H106.562Z"/>
        <path d="M24.8611 16.0553C24.2975 15.7309 23.9865 15.0976 24.0744 14.4534C24.1992 13.6473 24.8981 13.0559 25.7138 13.0662H36.6731L37.4237 9.79797H7.12054L6.73021 10.7618C6.10268 12.4522 5.84296 14.0105 5.84296 15.0719C5.83475 16.1201 5.94351 17.166 6.16724 18.1901L6.32787 18.7561H29.0902C27.2316 17.5415 25.313 16.3165 24.8611 16.0553Z"/>
        <path d="M87.0857 20.0592H36.9087L34.1704 32.212H84.9599L87.0857 20.0592Z"/>
        <path d="M32.3975 32.212L34.1435 24.7056C34.4298 23.4386 33.9626 22.1198 32.9425 21.3157C32.7548 21.1656 32.0342 20.6837 31.0944 20.0637H6.72876C9.02571 26.0462 15.2155 28.3567 17.2557 30.2063C17.6595 30.6671 17.8652 30.9209 17.8562 31.4733C17.8621 31.7233 17.8363 31.973 17.7796 32.2165L32.3975 32.212Z"/>
        <path d="M88.8798 9.79797H66.4628L62.8643 18.7485H87.3155L88.8798 9.79797Z"/>
        <path d="M51.3555 33.9354L53.5173 47.597H59.1696C60.485 47.5963 61.6817 46.8359 62.2412 45.6453L67.7403 33.9354H51.3555Z"/>
        <path d="M70.0148 33.9354L67.7629 47.597H79.4173C81.0672 47.5973 82.4781 46.4106 82.7606 44.7851L84.6582 33.9399L70.0148 33.9354Z"/>
        <path d="M33.7785 33.9354L30.7009 47.597H43.3116C44.8868 47.5968 46.2548 46.5124 46.6144 44.9788L49.2416 33.9354H33.7785Z"/>
        <path d="M86.3696 33.9354L84.0261 47.597H97.0391C98.6921 47.597 100.105 46.4066 100.385 44.7776L102.244 33.9399L86.3696 33.9354Z"/>
        <path d="M13.3748 33.9354C11.8495 33.9489 9.51056 33.9444 7.35923 33.9354H2.11829L0 47.5925H23.8507C26.7508 47.5921 29.2714 45.6007 29.9429 42.7794L31.9981 33.9354H13.3748Z"/>
        <path d="M89.0569 8.78611L90.5267 0.403008H72.597C71.1723 0.403008 69.8906 1.26871 69.3587 2.59036L66.8696 8.78611H89.0569Z"/>
        <path d="M60.9982 8.78611L59.8663 0.403008H44.1284C42.4968 0.403008 41.0829 1.53325 40.7236 3.12481L39.449 8.78611H60.9982Z"/>
        <path d="M37.6578 8.78611L39.2912 1.67008L39.584 0.403008H23.3417C19.0316 0.403008 15.6957 1.39985 13.1631 2.93715L11.2595 4.30631C9.76899 5.5514 8.53285 7.07249 7.6189 8.78611H37.6578Z"/>
    </symbol>


    <!-- Bell -->
    <symbol id="bell" viewBox="0 0 18 23">
        <path d="M9 22.6211C10.2375 22.6211 11.25 21.6086 11.25 20.3711H6.75C6.75 21.6086 7.75125 22.6211 9 22.6211ZM15.75 15.8711V10.2461C15.75 6.79234 13.905 3.90109 10.6875 3.13609V2.37109C10.6875 1.43734 9.93375 0.683594 9 0.683594C8.06625 0.683594 7.3125 1.43734 7.3125 2.37109V3.13609C4.08375 3.90109 2.25 6.78109 2.25 10.2461V15.8711L0 18.1211V19.2461H18V18.1211L15.75 15.8711Z"/>
    </symbol>


    <!-- Avatar -->
    <symbol id="avatar" viewBox="0 0 22 22">
        <path d="M11 11C14.0387 11 16.5 8.53875 16.5 5.5C16.5 2.46125 14.0387 0 11 0C7.96125 0 5.5 2.46125 5.5 5.5C5.5 8.53875 7.96125 11 11 11ZM11 13.75C7.32875 13.75 0 15.5925 0 19.25V22H22V19.25C22 15.5925 14.6713 13.75 11 13.75Z"/>
    </symbol>


    <!-- Home -->
    <symbol id="home" viewBox="0 0 20 17">
        <path d="M8 17V11H12V17H17V9H20L10 0L0 9H3V17H8Z"/>
    </symbol>



    <!-- Transactions -->
    <symbol id="transactions" viewBox="0 0 18 20">
        <path
            d="M15 15H3V13H15V15ZM15 11H3V9H15V11ZM15 7H3V5H15V7ZM0 20L1.5 18.5L3 20L4.5 18.5L6 20L7.5 18.5L9 20L10.5 18.5L12 20L13.5 18.5L15 20L16.5 18.5L18 20V0L16.5 1.5L15 0L13.5 1.5L12 0L10.5 1.5L9 0L7.5 1.5L6 0L4.5 1.5L3 0L1.5 1.5L0 0V20Z"/>
    </symbol>


    <!-- Outbound Payments -->
    <symbol id="outbound-payments" viewBox="0 0 22 16">
        <path
            d="M18 10V2C18 0.9 17.1 0 16 0H2C0.9 0 0 0.9 0 2V10C0 11.1 0.9 12 2 12H16C17.1 12 18 11.1 18 10ZM9 9C7.34 9 6 7.66 6 6C6 4.34 7.34 3 9 3C10.66 3 12 4.34 12 6C12 7.66 10.66 9 9 9ZM22 3V14C22 15.1 21.1 16 20 16H3V14H20V3H22Z"/>
    </symbol>


    <!-- Balances -->
    <symbol id="balances" viewBox="0 0 20 18">
        <path fill-rule="evenodd" clip-rule="evenodd"
            d="M18 0H2C0.9 0 0 0.9 0 2V16C0 17.1 0.9 18 2 18H18C19.1 18 20 17.1 20 16V2C20 0.9 19.1 0 18 0ZM8 14H3V12H8V14ZM8 10H3V8H8V10ZM8 6H3V4H8V6ZM12.82 12L10 9.16L11.41 7.75L12.82 9.17L15.99 6L17.41 7.42L12.82 12Z"/>
    </symbol>


    <!-- Reporting -->
    <symbol id="reporting" viewBox="0 0 18 18">
        <path d="M16 0H2C0.9 0 0 0.9 0 2V16C0 17.1 0.9 18 2 18H16C17.1 18 18 17.1 18 16V2C18 0.9 17.1 0 16 0ZM6 14H4V7H6V14ZM10 14H8V4H10V14ZM14 14H12V10H14V14Z"/>
    </symbol>



    <!-- Users -->
    <symbol id="users" viewBox="0 0 22 14">
        <path d="M15 6C16.66 6 17.99 4.66 17.99 3C17.99 1.34 16.66 0 15 0C13.34 0 12 1.34 12 3C12 4.66 13.34 6 15 6ZM7 6C8.66 6 9.99 4.66 9.99 3C9.99 1.34 8.66 0 7 0C5.34 0 4 1.34 4 3C4 4.66 5.34 6 7 6ZM7 8C4.67 8 0 9.17 0 11.5V14H14V11.5C14 9.17 9.33 8 7 8ZM15 8C14.71 8 14.38 8.02 14.03 8.05C15.19 8.89 16 10.02 16 11.5V14H22V11.5C22 9.17 17.33 8 15 8Z"/>
    </symbol>



    <!-- Settings -->
    <symbol id="settings" viewBox="0 0 20 21">
        <path d="M17.6462 11.6872C17.689 11.366 17.7104 11.034 17.7104 10.6806C17.7104 10.3379 17.689 9.99523 17.6355 9.67396L19.8094 7.98195C20.0021 7.83202 20.0557 7.54288 19.9379 7.3287L17.8818 3.77334C17.7533 3.53774 17.4855 3.46278 17.2499 3.53774L14.6905 4.5658C14.1551 4.15886 13.5875 3.81617 12.9557 3.55916L12.5701 0.83909C12.5273 0.582076 12.3131 0.400024 12.0561 0.400024H7.94388C7.68687 0.400024 7.4834 0.582076 7.44056 0.83909L7.05504 3.55916C6.42322 3.81617 5.84493 4.16957 5.3202 4.5658L2.76076 3.53774C2.52517 3.45207 2.25744 3.53774 2.12894 3.77334L0.08353 7.3287C-0.0449771 7.55359 -0.00214154 7.83202 0.212037 7.98195L2.38595 9.67396C2.33241 9.99523 2.28957 10.3486 2.28957 10.6806C2.28957 11.0126 2.31099 11.366 2.36453 11.6872L0.190619 13.3792C-0.00214152 13.5292 -0.055686 13.8183 0.0621122 14.0325L2.11823 17.5879C2.24673 17.8235 2.51446 17.8984 2.75005 17.8235L5.30949 16.7954C5.84493 17.2023 6.41251 17.545 7.04433 17.802L7.42986 20.5221C7.4834 20.7791 7.68687 20.9612 7.94388 20.9612H12.0561C12.3131 20.9612 12.5273 20.7791 12.5594 20.5221L12.945 17.802C13.5768 17.545 14.1551 17.2023 14.6798 16.7954L17.2392 17.8235C17.4748 17.9091 17.7426 17.8235 17.8711 17.5879L19.9272 14.0325C20.0557 13.7969 20.0021 13.5292 19.7987 13.3792L17.6462 11.6872ZM10 14.5358C7.87963 14.5358 6.14478 12.801 6.14478 10.6806C6.14478 8.56023 7.87963 6.82538 10 6.82538C12.1204 6.82538 13.8552 8.56023 13.8552 10.6806C13.8552 12.801 12.1204 14.5358 10 14.5358Z"/>
    </symbol>


    <!-- Expand -->
    <symbol id="expand" viewBox="0 0 13 9">
        <path d="M11.4778 0.5L6.52229 5.44467L1.56682 0.5L0.0445557 2.02227L6.52229 8.5L13 2.02227L11.4778 0.5Z"/>
    </symbol>


    <!-- Tooltip -->
    <symbol id="tooltip" viewBox="0 0 16 17">
        <path d="M8 0.5C3.584 0.5 0 4.084 0 8.5C0 12.916 3.584 16.5 8 16.5C12.416 16.5 16 12.916 16 8.5C16 4.084 12.416 0.5 8 0.5ZM8.8 14.1H7.2V12.5H8.8V14.1ZM10.456 7.9L9.736 8.636C9.16 9.22 8.8 9.7 8.8 10.9H7.2V10.5C7.2 9.62 7.56 8.82 8.136 8.236L9.128 7.228C9.424 6.94 9.6 6.54 9.6 6.1C9.6 5.22 8.88 4.5 8 4.5C7.12 4.5 6.4 5.22 6.4 6.1H4.8C4.8 4.332 6.232 2.9 8 2.9C9.768 2.9 11.2 4.332 11.2 6.1C11.2 6.804 10.912 7.444 10.456 7.9Z"/>
    </symbol>


    <!-- Increase -->
    <symbol id="increase" viewBox="0 -2 20 16">
        <path d="M10 0L18.6603 12H1.33975L10 0Z"/>
    </symbol>


    <!-- Decrease -->
    <symbol id="decrease" viewBox="0 0 20 16">
        <path d="M10.3335 16L18.9938 4H1.67324L10.3335 16Z"/>
    </symbol>

    <symbol id="arrow-up" viewBox="0 -960 960 960">
        <path d="m280-400 200-200 200 200H280Z" />
    </symbol>
    

    <!-- Download -->
    <symbol id="download" viewBox="0 0 10 13">
        <path d="M10 4.68187H7.14286V0.318237H2.85714V4.68187H0L5 9.77278L10 4.68187ZM0 11.2273V12.6819H10V11.2273H0Z"/>
    </symbol>


    <!-- Bank -->
    <symbol id="bank" viewBox="0 0 20 22">
        <path d="M2 9.5H5V16.5H2V9.5ZM8.5 9.5H11.5V16.5H8.5V9.5ZM0 18.5H20V21.5H0V18.5ZM15 9.5H18V16.5H15V9.5ZM10 0.5L0 5.5V7.5H20V5.5L10 0.5Z"/>
    </symbol>

</svg>