<svg xmlns="http://www.w3.org/2000/svg">
    <symbol id="smi-logo" viewBox="0 0 108 48" >
        <path d="M37.2031 18.7485H62.3434L61.1349 9.79797H39.2208L37.2031 18.7485Z"/>
        <path d="M90.5131 9.79797L88.9773 18.7485H104.852L106.388 9.79797H90.5131Z"/>
        <path d="M104.627 20.0592H88.7523L86.667 32.212H102.54L104.627 20.0592Z"/>
        <path d="M106.562 8.78611L108 0.403008H95.0665C93.3673 0.402778 91.9153 1.62716 91.6286 3.30196L90.6873 8.78611H106.562Z"/>
        <path d="M24.8611 16.0553C24.2975 15.7309 23.9865 15.0976 24.0744 14.4534C24.1992 13.6473 24.8981 13.0559 25.7138 13.0662H36.6731L37.4237 9.79797H7.12054L6.73021 10.7618C6.10268 12.4522 5.84296 14.0105 5.84296 15.0719C5.83475 16.1201 5.94351 17.166 6.16724 18.1901L6.32787 18.7561H29.0902C27.2316 17.5415 25.313 16.3165 24.8611 16.0553Z"/>
        <path d="M87.0857 20.0592H36.9087L34.1704 32.212H84.9599L87.0857 20.0592Z"/>
        <path d="M32.3975 32.212L34.1435 24.7056C34.4298 23.4386 33.9626 22.1198 32.9425 21.3157C32.7548 21.1656 32.0342 20.6837 31.0944 20.0637H6.72876C9.02571 26.0462 15.2155 28.3567 17.2557 30.2063C17.6595 30.6671 17.8652 30.9209 17.8562 31.4733C17.8621 31.7233 17.8363 31.973 17.7796 32.2165L32.3975 32.212Z"/>
        <path d="M88.8798 9.79797H66.4628L62.8643 18.7485H87.3155L88.8798 9.79797Z"/>
        <path d="M51.3555 33.9354L53.5173 47.597H59.1696C60.485 47.5963 61.6817 46.8359 62.2412 45.6453L67.7403 33.9354H51.3555Z"/>
        <path d="M70.0148 33.9354L67.7629 47.597H79.4173C81.0672 47.5973 82.4781 46.4106 82.7606 44.7851L84.6582 33.9399L70.0148 33.9354Z"/>
        <path d="M33.7785 33.9354L30.7009 47.597H43.3116C44.8868 47.5968 46.2548 46.5124 46.6144 44.9788L49.2416 33.9354H33.7785Z"/>
        <path d="M86.3696 33.9354L84.0261 47.597H97.0391C98.6921 47.597 100.105 46.4066 100.385 44.7776L102.244 33.9399L86.3696 33.9354Z"/>
        <path d="M13.3748 33.9354C11.8495 33.9489 9.51056 33.9444 7.35923 33.9354H2.11829L0 47.5925H23.8507C26.7508 47.5921 29.2714 45.6007 29.9429 42.7794L31.9981 33.9354H13.3748Z"/>
        <path d="M89.0569 8.78611L90.5267 0.403008H72.597C71.1723 0.403008 69.8906 1.26871 69.3587 2.59036L66.8696 8.78611H89.0569Z"/>
        <path d="M60.9982 8.78611L59.8663 0.403008H44.1284C42.4968 0.403008 41.0829 1.53325 40.7236 3.12481L39.449 8.78611H60.9982Z"/>
        <path d="M37.6578 8.78611L39.2912 1.67008L39.584 0.403008H23.3417C19.0316 0.403008 15.6957 1.39985 13.1631 2.93715L11.2595 4.30631C9.76899 5.5514 8.53285 7.07249 7.6189 8.78611H37.6578Z"/>
    </symbol>


    <symbol id="bell" viewBox="0 0 18 23">
        <path d="M9 22.6211C10.2375 22.6211 11.25 21.6086 11.25 20.3711H6.75C6.75 21.6086 7.75125 22.6211 9 22.6211ZM15.75 15.8711V10.2461C15.75 6.79234 13.905 3.90109 10.6875 3.13609V2.37109C10.6875 1.43734 9.93375 0.683594 9 0.683594C8.06625 0.683594 7.3125 1.43734 7.3125 2.37109V3.13609C4.08375 3.90109 2.25 6.78109 2.25 10.2461V15.8711L0 18.1211V19.2461H18V18.1211L15.75 15.8711Z"/>
    </symbol>


    <symbol id="avatar" viewBox="0 0 22 22">
        <path d="M11 11C14.0387 11 16.5 8.53875 16.5 5.5C16.5 2.46125 14.0387 0 11 0C7.96125 0 5.5 2.46125 5.5 5.5C5.5 8.53875 7.96125 11 11 11ZM11 13.75C7.32875 13.75 0 15.5925 0 19.25V22H22V19.25C22 15.5925 14.6713 13.75 11 13.75Z"/>
    </symbol>
</svg>